<svg aria-roledescription="gitGraph" role="graphics-document document" viewBox="-97.3125 -19 1305.3125 629.9494018554688" style="max-width: 1305.3125px;" xmlns="http://www.w3.org/2000/svg" width="100%" id="container"><style>#container{font-family:"trebuchet ms",verdana,arial,sans-serif;font-size:16px;fill:#333;}#container .error-icon{fill:hsl(220.5882352941, 100%, 98.3333333333%);}#container .error-text{fill:rgb(8.5000000002, 5.7500000001, 0);stroke:rgb(8.5000000002, 5.7500000001, 0);}#container .edge-thickness-normal{stroke-width:1px;}#container .edge-thickness-thick{stroke-width:3.5px;}#container .edge-pattern-solid{stroke-dasharray:0;}#container .edge-thickness-invisible{stroke-width:0;fill:none;}#container .edge-pattern-dashed{stroke-dasharray:3;}#container .edge-pattern-dotted{stroke-dasharray:2;}#container .marker{fill:#0b0b0b;stroke:#0b0b0b;}#container .marker.cross{stroke:#0b0b0b;}#container svg{font-family:"trebuchet ms",verdana,arial,sans-serif;font-size:16px;}#container p{margin:0;}#container .commit-id,#container .commit-msg,#container .branch-label{fill:lightgrey;color:lightgrey;font-family:'trebuchet ms',verdana,arial,sans-serif;font-family:var(--mermaid-font-family);}#container .branch-label0{fill:#333;}#container .commit0{stroke:hsl(40.5882352941, 100%, 68.3333333333%);fill:hsl(40.5882352941, 100%, 68.3333333333%);}#container .commit-highlight0{stroke:rgb(0, 52.2500000001, 161.5000000002);fill:rgb(0, 52.2500000001, 161.5000000002);}#container .label0{fill:hsl(40.5882352941, 100%, 68.3333333333%);}#container .arrow0{stroke:hsl(40.5882352941, 100%, 68.3333333333%);}#container .branch-label1{fill:#333;}#container .commit1{stroke:hsl(-79.4117647059, 100%, 68.3333333333%);fill:hsl(-79.4117647059, 100%, 68.3333333333%);}#container .commit-highlight1{stroke:rgb(52.2500000001, 161.5000000002, 0);fill:rgb(52.2500000001, 161.5000000002, 0);}#container .label1{fill:hsl(-79.4117647059, 100%, 68.3333333333%);}#container .arrow1{stroke:hsl(-79.4117647059, 100%, 68.3333333333%);}#container .branch-label2{fill:#333;}#container .commit2{stroke:hsl(220.5882352941, 100%, 73.3333333333%);fill:hsl(220.5882352941, 100%, 73.3333333333%);}#container .commit-highlight2{stroke:rgb(136.0000000002, 92.0000000001, 0);fill:rgb(136.0000000002, 92.0000000001, 0);}#container .label2{fill:hsl(220.5882352941, 100%, 73.3333333333%);}#container .arrow2{stroke:hsl(220.5882352941, 100%, 73.3333333333%);}#container .branch-label3{fill:#333;}#container .commit3{stroke:hsl(10.5882352941, 100%, 68.3333333333%);fill:hsl(10.5882352941, 100%, 68.3333333333%);}#container .commit-highlight3{stroke:rgb(0, 133.0000000002, 161.5000000002);fill:rgb(0, 133.0000000002, 161.5000000002);}#container .label3{fill:hsl(10.5882352941, 100%, 68.3333333333%);}#container .arrow3{stroke:hsl(10.5882352941, 100%, 68.3333333333%);}#container .branch-label4{fill:#333;}#container .commit4{stroke:hsl(-19.4117647059, 100%, 68.3333333333%);fill:hsl(-19.4117647059, 100%, 68.3333333333%);}#container .commit-highlight4{stroke:rgb(0, 161.5000000002, 109.2500000001);fill:rgb(0, 161.5000000002, 109.2500000001);}#container .label4{fill:hsl(-19.4117647059, 100%, 68.3333333333%);}#container .arrow4{stroke:hsl(-19.4117647059, 100%, 68.3333333333%);}#container .branch-label5{fill:#333;}#container .commit5{stroke:hsl(-49.4117647059, 100%, 68.3333333333%);fill:hsl(-49.4117647059, 100%, 68.3333333333%);}#container .commit-highlight5{stroke:rgb(0, 161.5000000002, 28.5);fill:rgb(0, 161.5000000002, 28.5);}#container .label5{fill:hsl(-49.4117647059, 100%, 68.3333333333%);}#container .arrow5{stroke:hsl(-49.4117647059, 100%, 68.3333333333%);}#container .branch-label6{fill:#333;}#container .commit6{stroke:hsl(100.5882352941, 100%, 68.3333333333%);fill:hsl(100.5882352941, 100%, 68.3333333333%);}#container .commit-highlight6{stroke:rgb(109.2500000001, 0, 161.5000000002);fill:rgb(109.2500000001, 0, 161.5000000002);}#container .label6{fill:hsl(100.5882352941, 100%, 68.3333333333%);}#container .arrow6{stroke:hsl(100.5882352941, 100%, 68.3333333333%);}#container .branch-label7{fill:#333;}#container .commit7{stroke:hsl(160.5882352941, 100%, 68.3333333333%);fill:hsl(160.5882352941, 100%, 68.3333333333%);}#container .commit-highlight7{stroke:rgb(161.5000000002, 0, 52.2500000001);fill:rgb(161.5000000002, 0, 52.2500000001);}#container .label7{fill:hsl(160.5882352941, 100%, 68.3333333333%);}#container .arrow7{stroke:hsl(160.5882352941, 100%, 68.3333333333%);}#container .branch{stroke-width:1;stroke:#0b0b0b;stroke-dasharray:2;}#container .commit-label{font-size:10px;fill:rgb(11.0000000001, 34.0000000002, 0);}#container .commit-label-bkg{font-size:10px;fill:hsl(-79.4117647059, 100%, 93.3333333333%);opacity:0.5;}#container .tag-label{font-size:10px;fill:#333;}#container .tag-label-bkg{fill:#fff4dd;stroke:hsl(40.5882352941, 60%, 83.3333333333%);}#container .tag-hole{fill:#333;}#container .commit-merge{stroke:#fff4dd;fill:#fff4dd;}#container .commit-reverse{stroke:#fff4dd;fill:#fff4dd;stroke-width:3;}#container .commit-highlight-inner{stroke:#fff4dd;fill:#fff4dd;}#container .arrow{stroke-width:8;stroke-linecap:round;fill:none;}#container .gitTitleText{text-anchor:middle;font-size:18px;fill:#333;}#container :root{--mermaid-font-family:"trebuchet ms",verdana,arial,sans-serif;}</style><g></g><g class="commit-bullets"></g><g class="commit-labels"></g><g><line class="branch branch0" y2="0" x2="1200" y1="0" x1="0"></line><rect transform="translate(-19, -9.5)" height="23" width="54.3125" y="-1.5" x="-70.3125" ry="4" rx="4" class="branchLabelBkg label0"></rect><g class="branchLabel"><g transform="translate(-80.3125, -10.5)" class="label branch-label0"><text><tspan class="row" x="0" dy="1em" xml:space="preserve">main</tspan></text></g></g><line class="branch branch1" y2="90" x2="1200" y1="90" x1="0"></line><rect transform="translate(-19, 80.5)" height="23" width="26" y="-1.5" x="-42" ry="4" rx="4" class="branchLabelBkg label1"></rect><g class="branchLabel"><g transform="translate(-52, 79.5)" class="label branch-label1"><text><tspan class="row" x="0" dy="1em" xml:space="preserve">x</tspan></text></g></g><line class="branch branch2" y2="180" x2="1200" y1="180" x1="0"></line><rect transform="translate(-19, 170.5)" height="23" width="44.22404479980469" y="-1.5" x="-60.22404479980469" ry="4" rx="4" class="branchLabelBkg label2"></rect><g class="branchLabel"><g transform="translate(-70.22404479980469, 169.5)" class="label branch-label2"><text><tspan class="row" x="0" dy="1em" xml:space="preserve">dev</tspan></text></g></g><line class="branch branch3" y2="270" x2="1200" y1="270" x1="0"></line><g class="branchLabel"><g transform="translate(-44, 269)" class="label branch-label3"><text><tspan class="row" x="0" dy="1em" xml:space="preserve"></tspan></text></g></g><line class="branch branch4" y2="360" x2="1200" y1="360" x1="0"></line><g class="branchLabel"><g transform="translate(-44, 359)" class="label branch-label4"><text><tspan class="row" x="0" dy="1em" xml:space="preserve"></tspan></text></g></g><line class="branch branch5" y2="450" x2="1200" y1="450" x1="0"></line><g class="branchLabel"><g transform="translate(-44, 449)" class="label branch-label5"><text><tspan class="row" x="0" dy="1em" xml:space="preserve"></tspan></text></g></g></g><g class="commit-arrows"><path class="arrow arrow0" d="M 10 0 L 60 0"></path><path class="arrow arrow1" d="M 60 0 L 60 70 A 20 20, 0, 0, 0, 80 90 L 110 90"></path><path class="arrow arrow1" d="M 110 90 L 160 90"></path><path class="arrow arrow1" d="M 160 90 L 210 90"></path><path class="arrow arrow3" d="M 60 0 L 60 250 A 20 20, 0, 0, 0, 80 270 L 260 270"></path><path class="arrow arrow3" d="M 260 270 L 310 270"></path><path class="arrow arrow3" d="M 310 270 L 360 270"></path><path class="arrow arrow3" d="M 360 270 L 410 270"></path><path class="arrow arrow3" d="M 410 270 L 460 270"></path><path class="arrow arrow2" d="M 60 0 L 60 160 A 20 20, 0, 0, 0, 80 180 L 510 180"></path><path class="arrow arrow3" d="M 460 270 L 490 270 A 20 20, 0, 0, 0, 510 250 L 510 180"></path><path class="arrow arrow4" d="M 510 180 L 510 340 A 20 20, 0, 0, 0, 530 360 L 560 360"></path><path class="arrow arrow4" d="M 560 360 L 610 360"></path><path class="arrow arrow2" d="M 510 180 L 660 180"></path><path class="arrow arrow4" d="M 610 360 L 640 360 A 20 20, 0, 0, 0, 660 340 L 660 180"></path><path class="arrow arrow2" d="M 660 180 L 710 180"></path><path class="arrow arrow2" d="M 710 180 L 760 180"></path><path class="arrow arrow2" d="M 760 180 L 810 180"></path><path class="arrow arrow0" d="M 60 0 L 860 0"></path><path class="arrow arrow2" d="M 810 180 L 840 180 A 20 20, 0, 0, 0, 860 160 L 860 0"></path><path class="arrow arrow5" d="M 810 180 L 810 430 A 20 20, 0, 0, 0, 830 450 L 910 450"></path><path class="arrow arrow5" d="M 910 450 L 960 450"></path><path class="arrow arrow5" d="M 960 450 L 1010 450"></path><path class="arrow arrow5" d="M 1010 450 L 1060 450"></path><path class="arrow arrow2" d="M 810 180 L 1110 180"></path><path class="arrow arrow5" d="M 1060 450 L 1090 450 A 20 20, 0, 0, 0, 1110 430 L 1110 180"></path><path class="arrow arrow0" d="M 860 0 L 1160 0"></path><path class="arrow arrow2" d="M 1110 180 L 1140 180 A 20 20, 0, 0, 0, 1160 160 L 1160 0"></path></g><g class="commit-bullets"><circle class="commit Добавлен ReadMe.md commit0" r="10" cy="0" cx="10"></circle><circle class="commit Добавлен .gitignore commit0" r="10" cy="0" cx="60"></circle><circle class="commit Добавлен workflow welcome commit1" r="10" cy="90" cx="110"></circle><path class="commit commit-reverse Добавлен workflow welcome commit1" d="M 105,85L115,95M105,95L115,85"></path><circle class="commit Обновлён workflow welcome commit1" r="10" cy="90" cx="160"></circle><path class="commit commit-reverse Обновлён workflow welcome commit1" d="M 155,85L165,95M155,95L165,85"></path><circle class="commit Добавлен workflow dump_vars commit1" r="10" cy="90" cx="210"></circle><path class="commit commit-reverse Добавлен workflow dump_vars commit1" d="M 205,85L215,95M205,95L215,85"></path><circle class="commit Добавлен шаблон приложения commit3" r="10" cy="270" cx="260"></circle><circle class="commit Добавлены unit тесты commit3" r="10" cy="270" cx="310"></circle><circle class="commit Добавлен workflow unit-tests commit3" r="10" cy="270" cx="360"></circle><circle class="commit Обновлён workflow unit-tests commit3" r="10" cy="270" cx="410"></circle><circle class="commit Добавлен workflow pull-request-to-dev commit3" r="10" cy="270" cx="460"></circle><circle class="commit Merge pull request 1 commit2" r="9" cy="180" cx="510"></circle><circle class="commit commit-merge Merge pull request 1 commit2" r="6" cy="180" cx="510"></circle><circle class="commit Добавлен workflow staging commit4" r="10" cy="360" cx="560"></circle><circle class="commit Добавлен Dockerfile commit4" r="10" cy="360" cx="610"></circle><circle class="commit Merge pull request 2 commit2" r="9" cy="180" cx="660"></circle><circle class="commit commit-merge Merge pull request 2 commit2" r="6" cy="180" cx="660"></circle><circle class="commit Добавлены бейджи commit2" r="10" cy="180" cx="710"></circle><circle class="commit Добавлены All Mega Hard Tests commit2" r="10" cy="180" cx="760"></circle><circle class="commit Добавлен workflow pull-request-to-main commit2" r="10" cy="180" cx="810"></circle><circle class="commit Merge pull request 3 commit0" r="9" cy="0" cx="860"></circle><circle class="commit commit-merge Merge pull request 3 commit0" r="6" cy="0" cx="860"></circle><circle class="commit Изменён основной код приложения commit5" r="10" cy="450" cx="910"></circle><circle class="commit Добавлен mysql-connector-python commit5" r="10" cy="450" cx="960"></circle><circle class="commit Изменён workflow pull-request-to-dev commit5" r="10" cy="450" cx="1010"></circle><circle class="commit Изменён workflow pull-request-to-main commit5" r="10" cy="450" cx="1060"></circle><circle class="commit Merge pull request 4 commit2" r="9" cy="180" cx="1110"></circle><circle class="commit commit-merge Merge pull request 4 commit2" r="6" cy="180" cx="1110"></circle><circle class="commit Merge pull request 5 commit0" r="9" cy="0" cx="1160"></circle><circle class="commit commit-merge Merge pull request 5 commit0" r="6" cy="0" cx="1160"></circle></g><g class="commit-labels"><g transform="translate(-50.12836822509765, 44.74117156982422) rotate(-45, 0, 0)"><rect height="16" width="106.17991638183594" y="13.5" x="-43.08995819091797" class="commit-label-bkg"></rect><text class="commit-label" y="25" x="-41.08995819091797">Добавлен ReadMe.md</text></g><g transform="translate(-46.3253125, 41.3384375) rotate(-45, 50, 0)"><rect height="16" width="96.171875" y="13.5" x="11.9140625" class="commit-label-bkg"></rect><text class="commit-label" y="25" x="13.9140625">Добавлен .gitignore</text></g><g transform="translate(-61.7925, 55.1775) rotate(-45, 100, 90)"><rect height="16" width="136.875" y="103.5" x="41.5625" class="commit-label-bkg"></rect><text class="commit-label" y="115" x="43.5625">Добавлен workflow welcome</text></g><g transform="translate(-61.946875, 55.315625) rotate(-45, 150, 90)"><rect height="17" width="137.28125" y="103.5" x="91.359375" class="commit-label-bkg"></rect><text class="commit-label" y="115" x="93.359375">Обновлён workflow welcome</text></g><g transform="translate(-65.58296752929687, 58.568970947265626) rotate(-45, 200, 90)"><rect height="16" width="146.84991455078125" y="103.5" x="136.57504272460938" class="commit-label-bkg"></rect><text class="commit-label" y="115" x="138.57504272460938">Добавлен workflow dump_vars</text></g><g transform="translate(-67.551875, 60.330625) rotate(-45, 250, 270)"><rect height="16" width="152.03125" y="283.5" x="183.984375" class="commit-label-bkg"></rect><text class="commit-label" y="295" x="185.984375">Добавлен шаблон приложения</text></g><g transform="translate(-50.766562500000006, 45.3121875) rotate(-45, 300, 270)"><rect height="16" width="107.859375" y="283.5" x="256.0703125" class="commit-label-bkg"></rect><text class="commit-label" y="295" x="258.0703125">Добавлены unit тесты</text></g><g transform="translate(-63.28777587890625, 56.51537841796875) rotate(-45, 350, 270)"><rect height="16" width="140.8099365234375" y="283.5" x="289.59503173828125" class="commit-label-bkg"></rect><text class="commit-label" y="295" x="291.59503173828125">Добавлен workflow unit-tests</text></g><g transform="translate(-63.43976196289062, 56.651365966796874) rotate(-45, 400, 270)"><rect height="17" width="141.20989990234375" y="283.5" x="339.3950500488281" class="commit-label-bkg"></rect><text class="commit-label" y="295" x="341.3950500488281">Обновлён workflow unit-tests</text></g><g transform="translate(-80.58155639648437, 71.98876098632812) rotate(-45, 450, 270)"><rect height="16" width="186.31988525390625" y="283.5" x="366.8400573730469" class="commit-label-bkg"></rect><text class="commit-label" y="295" x="368.8400573730469">Добавлен workflow pull-request-to-dev</text></g><g transform="translate(-46.2125, 41.2375) rotate(-45, 500, 180)"><rect height="16" width="95.875" y="193.5" x="462.0625" class="commit-label-bkg"></rect><text class="commit-label" y="205" x="464.0625">Merge pull request 1</text></g><g transform="translate(-59.316771240234374, 52.96237426757813) rotate(-45, 550, 360)"><rect height="16" width="130.35992431640625" y="373.5" x="494.8200378417969" class="commit-label-bkg"></rect><text class="commit-label" y="385" x="496.8200378417969">Добавлен workflow staging</text></g><g transform="translate(-47.358437499999994, 42.262812499999995) rotate(-45, 600, 360)"><rect height="16" width="98.890625" y="373.5" x="560.5546875" class="commit-label-bkg"></rect><text class="commit-label" y="385" x="562.5546875">Добавлен Dockerfile</text></g><g transform="translate(-46.46516845703125, 41.463571777343745) rotate(-45, 650, 180)"><rect height="16" width="96.5399169921875" y="193.5" x="611.7300415039062" class="commit-label-bkg"></rect><text class="commit-label" y="205" x="613.7300415039062">Merge pull request 2</text></g><g transform="translate(-46.550937499999996, 41.5403125) rotate(-45, 700, 180)"><rect height="16" width="96.765625" y="193.5" x="661.6171875" class="commit-label-bkg"></rect><text class="commit-label" y="205" x="663.6171875">Добавлены бейджи</text></g><g transform="translate(-66.4379443359375, 59.3339501953125) rotate(-45, 750, 180)"><rect height="16" width="149.099853515625" y="193.5" x="685.4500732421875" class="commit-label-bkg"></rect><text class="commit-label" y="205" x="687.4500732421875">Добавлены All Mega Hard Tests</text></g><g transform="translate(-82.9775, 74.1325) rotate(-45, 800, 180)"><rect height="16" width="192.625" y="193.5" x="713.6875" class="commit-label-bkg"></rect><text class="commit-label" y="205" x="715.6875">Добавлен workflow pull-request-to-main</text></g><g transform="translate(-46.46516845703125, 41.463571777343745) rotate(-45, 850, 0)"><rect height="16" width="96.5399169921875" y="13.5" x="811.7300415039062" class="commit-label-bkg"></rect><text class="commit-label" y="25" x="813.7300415039062">Merge pull request 3</text></g><g transform="translate(-76.20875, 68.07624999999999) rotate(-45, 900, 450)"><rect height="17" width="174.8125" y="463.5" x="822.59375" class="commit-label-bkg"></rect><text class="commit-label" y="475" x="824.59375">Изменён основной код приложения</text></g><g transform="translate(-72.67, 64.91) rotate(-45, 950, 450)"><rect height="16" width="165.5" y="463.5" x="877.25" class="commit-label-bkg"></rect><text class="commit-label" y="475" x="879.25">Добавлен mysql-connector-python</text></g><g transform="translate(-78.506748046875, 70.132353515625) rotate(-45, 1000, 450)"><rect height="17" width="180.85986328125" y="463.5" x="919.570068359375" class="commit-label-bkg"></rect><text class="commit-label" y="475" x="921.570068359375">Изменён workflow pull-request-to-dev</text></g><g transform="translate(-80.9053125, 72.2784375) rotate(-45, 1050, 450)"><rect height="17" width="187.171875" y="463.5" x="966.4140625" class="commit-label-bkg"></rect><text class="commit-label" y="475" x="968.4140625">Изменён workflow pull-request-to-main</text></g><g transform="translate(-46.84516845703125, 41.80357177734375) rotate(-45, 1100, 180)"><rect height="16" width="97.5399169921875" y="193.5" x="1061.2300415039062" class="commit-label-bkg"></rect><text class="commit-label" y="205" x="1063.2300415039062">Merge pull request 4</text></g><g transform="translate(-46.47375, 41.47125) rotate(-45, 1150, 0)"><rect height="16" width="96.5625" y="13.5" x="1111.71875" class="commit-label-bkg"></rect><text class="commit-label" y="25" x="1113.71875">Merge pull request 5</text></g></g></svg>